# xmcd
#
# Track frame offsets:
# 150
# 15901
# 37743
# 53468
# 70533
# 80870
# 94683
# 119435
# 133219
# 141960
# 153424
# 174753
# 191738
# 202202
# 215463
# 227206
# 240161
# 252961
# 272564
# 280057
#
# Disc length: 3857 seconds
#
#
# Revision: 0
# Processed by: cddbd v1.5.1PL2 Copyright (c) Steve Scherf et al.
# Submitted via: FreeRIP 2.944 
#
DISCID=100f0f14
DTITLE=Various Artist - 中國民族經典第三輯
DYEAR=2005
DGENRE=Folk
TTITLE0=九九艷陽天（電影《柳堡的故事》插曲）
TTITLE1=馬兒啊你慢些走
TTITLE2=洪湖水浪打浪（電影《洪湖赤衛隊》插曲）
TTITLE3=十個男兒九粗心（電影《劉三姐》插曲）
TTITLE4=南泥灣（電影《東方紅》插曲）
TTITLE5=月亮走我也走
TTITLE6=我的祖國（電影《上甘嶺》插曲
TTITLE7=化蝶
TTITLE8=雨不酒花花不紅
TTITLE9=辣椒紅
TTITLE10=白毛女札紅頭繩（芭蕾舞《白毛女》選曲）
TTITLE11=汾河流水嘩啦啦
TTITLE12=紅星照我去戰鬥（電影《閃閃的紅星》插曲）
TTITLE13=一個美麗的傳說
TTITLE14=枉凝眉（電影《紅樓夢》插曲
TTITLE15=牧羊曲（電影《少林寺》插曲）
TTITLE16=金瓶似的小山
TTITLE17=月亮下的鳳尾竹
TTITLE18=郎從對門來
TTITLE19=對花
EXTD=
EXTT0=
EXTT1=
EXTT2=
EXTT3=
EXTT4=
EXTT5=
EXTT6=
EXTT7=
EXTT8=
EXTT9=
EXTT10=
EXTT11=
EXTT12=
EXTT13=
EXTT14=
EXTT15=
EXTT16=
EXTT17=
EXTT18=
EXTT19=
PLAYORDER=
